<svg xmlns="http://www.w3.org/2000/svg" viewBox="0 0 100 100" width="100" height="100">
    <defs>
        <linearGradient id="smooth-frame-fill" x1="0" y1="0" x2="1" y2="1">
            <stop offset="0%" stop-color="#0EA5E9"/>
            <stop offset="48%" stop-color="#2DD4BF"/>
            <stop offset="100%" stop-color="#FDE68A"/>
        </linearGradient>
    </defs>
    <path d="M 36,0 L 64,0 C 76.601,0 82.902,0 87.715,2.452 C 91.948,4.61 95.39,8.052 97.548,12.285 C 100,17.098 100,23.399 100,36 L 100,64 C 100,76.601 100,82.902 97.548,87.715 C 95.39,91.948 91.948,95.39 87.715,97.548 C 82.902,100 76.601,100 64,100 L 36,100 C 23.399,100 17.098,100 12.285,97.548 C 8.052,95.39 4.61,91.948 2.452,87.715 C 0,82.902 0,76.601 0,64 L 0,36 C 0,23.399 0,17.098 2.452,12.285 C 4.61,8.052 8.052,4.61 12.285,2.452 C 17.098,0 23.399,0 36,0 Z"
          transform="translate(0 0)" fill="url(#smooth-frame-fill)"/>
</svg>
