<svg xmlns="http://www.w3.org/2000/svg" viewBox="0 0 1000 1000" width="1000" height="1000">
  <path d="M 360,0 L 638,0 C 764.012,0 827.018,0 875.148,24.524 C 917.484,46.095 951.905,80.516 973.476,122.852 C 998,170.982 998,233.988 998,360 L 998,638 C 998,764.012 998,827.018 973.476,875.148 C 951.905,917.484 917.484,951.905 875.148,973.476 C 827.018,998 764.012,998 638,998 L 360,998 C 233.988,998 170.982,998 122.852,973.476 C 80.516,951.905 46.095,917.484 24.524,875.148 C 0,827.018 0,764.012 0,638 L 0,360 C 0,233.988 0,170.982 24.524,122.852 C 46.095,80.516 80.516,46.095 122.852,24.524 C 170.982,0 233.988,0 360,0 Z" transform="translate(1 1)" fill="#6EE7B7" stroke="#0F172A" stroke-width="2"/>
</svg>
